<svg width="149" height="133" viewBox="0 0 149 133" fill="none" xmlns="http://www.w3.org/2000/svg"> <g clip-path="url(#clip0_26_389)"> <path d="M74.4547 79.515C81.7849 79.515 87.7271 73.5727 87.7271 66.2426C87.7271 58.9125 81.7849 52.9702 74.4547 52.9702C67.1246 52.9702 61.1824 58.9125 61.1824 66.2426C61.1824 73.5727 67.1246 79.515 74.4547 79.515Z" fill="#763F21"></path> <path d="M74.4548 93.4351C113.787 93.4351 145.672 81.2608 145.672 66.243C145.672 51.2251 113.787 39.0508 74.4548 39.0508C35.1224 39.0508 3.23718 51.2251 3.23718 66.243C3.23718 81.2608 35.1224 93.4351 74.4548 93.4351Z" stroke="#763F21" stroke-width="6.47433"></path> <path d="M50.9056 79.8396C70.5718 113.902 97.0577 135.429 110.064 127.92C123.069 120.411 117.67 86.7103 98.0038 52.6474C78.3376 18.5846 51.8517 -2.94163 38.8459 4.56728C25.8401 12.0762 31.2394 45.7768 50.9056 79.8396Z" stroke="#763F21" stroke-width="6.47433"></path> <path d="M50.9056 52.6486C31.2394 86.7115 25.8401 120.412 38.8459 127.921C51.8517 135.43 78.3376 113.904 98.0038 79.8408C117.67 45.7779 123.069 12.0774 110.064 4.56846C97.0577 -2.94045 70.5718 18.5858 50.9056 52.6486Z" stroke="#763F21" stroke-width="6.47433"></path> </g> <defs> <clipPath id="clip0_26_389"> <rect width="149" height="132.487" fill="white"></rect> </clipPath> </defs> </svg>